<?xml version="1.0" encoding="utf-8"?>
<!-- Generator: Adobe Illustrator 26.2.1, SVG Export Plug-In . SVG Version: 6.00 Build 0)  -->
<svg version="1.1" id="Capa_1" xmlns="http://www.w3.org/2000/svg" xmlns:xlink="http://www.w3.org/1999/xlink" x="0px" y="0px"
	 viewBox="0 0 600 268.69" style="enable-background:new 0 0 600 268.69;" xml:space="preserve">
<style type="text/css">
	.st0{clip-path:url(#SVGID_00000015343673799252620440000017167150824337717680_);fill:#1D1D1B;}
</style>
<g>
	<g>
		<path d="M162.41,204.86v2.86h-8.1v21.16h-3.29v-21.16h-8.1v-2.86H162.41z"/>
		<path d="M174.08,204.86h17.43v2.94h-14.26v7.29h13.18v2.78h-13.18v8.14h14.51v2.86h-17.68V204.86z"/>
		<path d="M204.88,204.86h10.92c1.8,0,3.28,0.27,4.45,0.8c2.22,1.03,3.32,2.92,3.32,5.68c0,1.44-0.3,2.62-0.89,3.53
			c-0.59,0.92-1.43,1.65-2.49,2.21c0.94,0.38,1.64,0.88,2.12,1.5c0.47,0.62,0.74,1.63,0.79,3.03l0.11,3.22
			c0.03,0.92,0.11,1.6,0.23,2.04c0.2,0.76,0.54,1.25,1.05,1.47v0.54h-3.99c-0.11-0.21-0.2-0.47-0.26-0.8s-0.12-0.96-0.16-1.9
			l-0.2-4.01c-0.07-1.57-0.64-2.62-1.7-3.16c-0.6-0.29-1.55-0.44-2.84-0.44h-7.2v10.3h-3.25V204.86z M215.45,215.87
			c1.48,0,2.66-0.31,3.52-0.92s1.3-1.71,1.3-3.3c0-1.71-0.6-2.88-1.81-3.5c-0.65-0.33-1.51-0.49-2.59-0.49h-7.73v8.21H215.45z"/>
		<path d="M254.04,206.61c1.66,1.6,2.58,3.42,2.76,5.46h-3.17c-0.35-1.55-1.06-2.77-2.11-3.68c-1.06-0.9-2.54-1.36-4.44-1.36
			c-2.32,0-4.2,0.83-5.63,2.5c-1.43,1.66-2.14,4.21-2.14,7.65c0,2.82,0.65,5.1,1.94,6.85c1.29,1.75,3.22,2.63,5.78,2.63
			c2.36,0,4.15-0.92,5.38-2.76c0.65-0.97,1.14-2.25,1.46-3.83h3.17c-0.28,2.53-1.21,4.65-2.78,6.36c-1.89,2.06-4.43,3.09-7.63,3.09
			c-2.76,0-5.08-0.84-6.95-2.54c-2.47-2.24-3.7-5.69-3.7-10.36c0-3.54,0.93-6.45,2.78-8.72c2-2.46,4.77-3.7,8.29-3.7
			C250.05,204.21,252.38,205.01,254.04,206.61z"/>
		<path d="M269.92,204.86h17.43v2.94H273.1v7.29h13.18v2.78H273.1v8.14h14.51v2.86h-17.68V204.86z"/>
		<path d="M300.72,204.86h10.92c1.8,0,3.28,0.27,4.45,0.8c2.22,1.03,3.32,2.92,3.32,5.68c0,1.44-0.3,2.62-0.89,3.53
			c-0.59,0.92-1.43,1.65-2.49,2.21c0.94,0.38,1.64,0.88,2.12,1.5s0.74,1.63,0.79,3.03l0.12,3.22c0.03,0.92,0.11,1.6,0.23,2.04
			c0.2,0.76,0.54,1.25,1.05,1.47v0.54h-3.99c-0.11-0.21-0.2-0.47-0.26-0.8s-0.12-0.96-0.16-1.9l-0.2-4.01
			c-0.07-1.57-0.64-2.62-1.7-3.16c-0.6-0.29-1.55-0.44-2.84-0.44h-7.2v10.3h-3.25V204.86z M311.29,215.87
			c1.48,0,2.66-0.31,3.52-0.92s1.3-1.71,1.3-3.3c0-1.71-0.6-2.88-1.81-3.5c-0.65-0.33-1.51-0.49-2.59-0.49h-7.73v8.21H311.29z"/>
		<path d="M339.88,204.86h3.68l8.72,24.03h-3.57l-2.44-7.2h-9.5l-2.6,7.2h-3.34L339.88,204.86z M345.22,219.04l-3.65-10.61
			l-3.88,10.61H345.22z"/>
		<path d="M379.76,204.86h17.43v2.94h-14.26v7.29h13.18v2.78h-13.18v8.14h14.51v2.86h-17.68V204.86z"/>
		<path d="M410.32,204.86h9.6c3.26,0,5.79,1.17,7.59,3.52c1.6,2.12,2.4,4.82,2.4,8.13c0,2.55-0.47,4.86-1.42,6.92
			c-1.67,3.64-4.54,5.46-8.6,5.46h-9.57V204.86z M419.28,226.11c1.08,0,1.96-0.11,2.65-0.34c1.24-0.42,2.25-1.24,3.04-2.45
			c0.63-0.97,1.08-2.21,1.36-3.73c0.16-0.91,0.24-1.75,0.24-2.52c0-2.98-0.58-5.29-1.73-6.93c-1.16-1.65-3.02-2.47-5.59-2.47h-5.64
			v18.45H419.28z"/>
		<path d="M443.47,204.86h3.29v24.03h-3.29V204.86z"/>
		<path d="M477.4,206.61c1.66,1.6,2.58,3.42,2.76,5.46H477c-0.35-1.55-1.06-2.77-2.11-3.68c-1.05-0.9-2.54-1.36-4.44-1.36
			c-2.32,0-4.2,0.83-5.63,2.5s-2.14,4.21-2.14,7.65c0,2.82,0.65,5.1,1.94,6.85c1.29,1.75,3.22,2.63,5.78,2.63
			c2.36,0,4.15-0.92,5.38-2.76c0.65-0.97,1.14-2.25,1.46-3.83h3.17c-0.28,2.53-1.21,4.65-2.78,6.36c-1.89,2.06-4.43,3.09-7.63,3.09
			c-2.76,0-5.08-0.84-6.95-2.54c-2.47-2.24-3.7-5.69-3.7-10.36c0-3.54,0.93-6.45,2.78-8.72c2-2.46,4.77-3.7,8.29-3.7
			C473.41,204.21,475.75,205.01,477.4,206.61z"/>
		<path d="M493.71,204.86H497v24.03h-3.29V204.86z"/>
		<path d="M530.44,208.3c1.59,2.13,2.39,4.85,2.39,8.16c0,3.59-0.91,6.57-2.73,8.95c-2.14,2.79-5.18,4.19-9.14,4.19
			c-3.7,0-6.6-1.22-8.72-3.66c-1.89-2.36-2.83-5.33-2.83-8.93c0-3.25,0.81-6.03,2.42-8.34c2.07-2.97,5.14-4.45,9.19-4.45
			C525.26,204.21,528.4,205.57,530.44,208.3z M527.57,223.61c1.28-2.06,1.92-4.42,1.92-7.1c0-2.83-0.74-5.1-2.22-6.83
			c-1.48-1.72-3.5-2.59-6.06-2.59c-2.49,0-4.51,0.85-6.08,2.56c-1.57,1.71-2.35,4.23-2.35,7.55c0,2.66,0.67,4.91,2.02,6.74
			c1.35,1.83,3.53,2.74,6.55,2.74C524.22,226.7,526.29,225.67,527.57,223.61z M524.64,197.58l-4.37,4.73h-2.26l2.99-4.73H524.64z"/>
		<path d="M545.08,204.86h3.83l11.98,19.41v-19.41h3.11v24.03h-3.66l-12.16-19.39v19.39h-3.11V204.86z"/>
	</g>
	<g>
		<path d="M18.72,24.97h14.22v2.51H21.5v6.22h10.06v2.44H21.5v9.32h-2.78V24.97z"/>
		<path d="M43.32,24.97h14.87v2.51H46.03v6.22h11.24v2.37H46.03v6.95H58.4v2.44H43.32V24.97z"/>
		<path d="M71.07,38.85c0.06,1.16,0.33,2.11,0.79,2.83c0.89,1.36,2.45,2.04,4.69,2.04c1,0,1.92-0.15,2.74-0.45
			c1.59-0.58,2.39-1.61,2.39-3.1c0-1.12-0.34-1.91-1.01-2.39c-0.69-0.46-1.76-0.87-3.22-1.21l-2.69-0.63
			c-1.76-0.41-3-0.86-3.73-1.35c-1.26-0.86-1.89-2.13-1.89-3.84c0-1.84,0.62-3.35,1.86-4.53c1.24-1.18,3-1.77,5.27-1.77
			c2.09,0,3.87,0.52,5.33,1.56s2.19,2.69,2.19,4.97h-2.61c-0.13-1.1-0.42-1.94-0.86-2.53c-0.81-1.07-2.19-1.6-4.13-1.6
			c-1.57,0-2.7,0.34-3.38,1.03c-0.69,0.69-1.03,1.49-1.03,2.4c0,1,0.41,1.74,1.22,2.2c0.53,0.3,1.73,0.67,3.61,1.12l2.78,0.66
			c1.34,0.32,2.38,0.75,3.11,1.3c1.26,0.96,1.89,2.35,1.89,4.17c0,2.27-0.81,3.89-2.42,4.87c-1.61,0.98-3.48,1.46-5.61,1.46
			c-2.49,0-4.43-0.65-5.84-1.95c-1.41-1.29-2.1-3.05-2.07-5.26H71.07z"/>
		<path d="M110.35,24.97v2.44h-6.91v18.05h-2.8V27.42h-6.91v-2.44H110.35z"/>
		<path d="M120.68,24.97h2.8v20.49h-2.8V24.97z"/>
		<path d="M136.76,24.97l5.89,17.45l5.82-17.45h3.11l-7.48,20.49h-2.94l-7.46-20.49H136.76z"/>
		<path d="M165.18,24.97h3.14l7.44,20.49h-3.04l-2.08-6.14h-8.11l-2.22,6.14h-2.85L165.18,24.97z M169.74,37.07l-3.11-9.05
			l-3.31,9.05H169.74z"/>
		<path d="M185.43,24.97h2.78v18.05h10.28v2.44h-13.06V24.97z"/>
		<path d="M222.62,24.97h8.19c2.78,0,4.94,1,6.47,3c1.37,1.8,2.05,4.12,2.05,6.93c0,2.18-0.4,4.14-1.21,5.9
			c-1.42,3.11-3.87,4.66-7.34,4.66h-8.16V24.97z M230.27,43.1c0.92,0,1.67-0.1,2.26-0.29c1.05-0.36,1.92-1.06,2.59-2.09
			c0.54-0.83,0.92-1.89,1.16-3.18c0.14-0.77,0.2-1.49,0.2-2.15c0-2.54-0.49-4.51-1.48-5.92c-0.99-1.4-2.58-2.11-4.77-2.11h-4.82
			V43.1H230.27z"/>
		<path d="M250.54,24.97h14.87v2.51h-12.17v6.22h11.24v2.37h-11.24v6.95h12.38v2.44h-15.08V24.97z"/>
		<path d="M306.05,26.47c1.42,1.37,2.2,2.92,2.36,4.66h-2.71c-0.3-1.32-0.9-2.37-1.8-3.14c-0.9-0.77-2.16-1.16-3.79-1.16
			c-1.98,0-3.58,0.71-4.8,2.13c-1.22,1.42-1.83,3.6-1.83,6.53c0,2.4,0.55,4.35,1.65,5.84s2.74,2.24,4.93,2.24
			c2.01,0,3.54-0.79,4.59-2.36c0.56-0.83,0.97-1.92,1.25-3.26h2.71c-0.24,2.16-1.03,3.97-2.37,5.43c-1.61,1.76-3.78,2.64-6.51,2.64
			c-2.35,0-4.33-0.72-5.93-2.16c-2.11-1.91-3.16-4.85-3.16-8.84c0-3.02,0.79-5.5,2.37-7.44c1.71-2.1,4.07-3.15,7.07-3.15
			C302.64,24.42,304.63,25.1,306.05,26.47z"/>
		<path d="M319.96,24.97h2.8v20.49h-2.8V24.97z"/>
		<path d="M334.41,24.97h3.27l10.22,16.56V24.97h2.65v20.49h-3.12l-10.37-16.54v16.54h-2.65V24.97z"/>
		<path d="M362.45,24.97h14.87v2.51h-12.17v6.22h11.24v2.37h-11.24v6.95h12.37v2.44h-15.08V24.97z"/>
	</g>
	<g>
		<g>
			<g>
				<g>
					<defs>
						<path id="SVGID_1_" d="M16.28,120.16c0.09-0.18,0.26-0.35,0.27-0.53c0.04-0.49,0.02-0.99,0.02-1.48c0-20.73,0-41.46,0-62.18
							c0-0.6,0-1.2,0-1.87c1.09-0.47,2.19-0.72,3.34-0.73c3.78-0.02,7.57-0.02,11.35,0c1.87,0.01,2.94,0.77,3.58,2.54
							c2.03,5.59,4.05,11.19,6.07,16.79c3.01,8.31,6.01,16.62,9.02,24.92c0.09,0.25,0.23,0.49,0.44,0.94
							c0.38-0.93,0.72-1.69,1.01-2.48c4.8-12.89,9.59-25.79,14.38-38.69c0.23-0.61,0.39-1.25,0.65-1.86
							c0.59-1.4,1.69-2.15,3.19-2.17c3.95-0.03,7.9-0.07,11.84,0.03c0.98,0.03,1.94,0.6,2.97,0.94c0.08,1.39,0.22,2.63,0.22,3.88
							c0.01,20.4-0.02,40.8,0.04,61.2c0.01,3.2-1.41,4.74-4.68,4.65c-1.92-0.05-3.84-0.03-5.76,0c-0.85,0.01-1.62-0.19-2.34-0.63
							c-0.81-0.49-1.23-1.23-1.33-2.15c-0.05-0.49-0.02-0.99-0.02-1.48c0-11.08,0-22.15,0-33.23c0-0.6,0-1.2,0-1.8
							c-0.06-0.01-0.12-0.02-0.18-0.04c-0.24,0.64-0.51,1.27-0.73,1.91c-2.53,7.5-5.04,15.01-7.58,22.51
							c-1.07,3.15-2.16,6.3-3.32,9.42c-0.5,1.36-0.47,2.63,0.03,3.98c4.52,12.24,9,24.49,13.51,36.74
							c3.75,10.2,7.49,20.4,11.27,30.58c0.75,2.03,1.12,4.07,1.11,6.24c-0.03,15.24-0.02,30.49-0.02,45.73c0,0.59,0,1.19,0,1.78
							c2.23-2.72,4.13-5.59,6.07-8.44c1.94-2.85,3.89-5.69,5.84-8.54c1.98-2.89,3.96-5.78,6.03-8.8c-0.29-0.45-0.59-0.95-0.92-1.43
							c-4.21-6.14-8.41-12.28-12.63-18.41c-0.72-1.04-1.42-2.06-1.49-3.4c-0.03-0.59-0.24-1.17-0.4-1.86
							c1.39-0.46,2.79-0.83,4.25-0.84c2.69-0.04,5.37,0,8.06-0.01c1.85-0.01,3.24,0.77,4.24,2.33c2.16,3.36,4.34,6.71,6.52,10.05
							c0.38,0.59,0.8,1.16,1.28,1.84c2.1-3.17,4.13-6.2,6.14-9.24c0.67-1,1.3-2.02,1.98-3.02c0.89-1.32,2.12-2,3.74-1.97
							c1.86,0.04,3.73-0.06,5.59,0.07c2.66,0.18,5.32,0.5,8.17,0.78c-5.76,8.47-11.54,16.77-17.41,25.08
							c0.38,0.59,0.76,1.19,1.16,1.77c4.49,6.54,9.03,13.05,13.46,19.64c1.28,1.9,2.27,3.99,3.39,5.99c-5.05,0-10.09,0-15.14,0
							c-1.71-0.66-2.71-2.03-3.66-3.5c-2.37-3.67-4.8-7.31-7.21-10.96c-0.22-0.34-0.51-0.64-0.81-1.01c-2.61,4.08-5.19,8.01-7.66,12
							c-0.94,1.52-1.97,2.83-3.69,3.47c-5.16,0-10.31,0-15.47,0c0.11-0.28,0.22-0.56,0.44-1.14c-2.35,0.92-4.53,0.82-6.71,0.81
							c-1.92-0.01-3.84,0-5.76,0c-0.43,0-0.85,0-1.45,0c-0.12-13.19,0-26.24-0.07-39.64c-0.29,0.75-0.46,1.15-0.6,1.56
							c-2.31,6.82-4.61,13.64-6.92,20.47c-1.66,4.91-3.32,9.82-5,14.73c-0.72,2.11-1.82,2.87-4.04,2.88
							c-2.19,0.01-4.39-0.05-6.58,0.02c-1.86,0.06-3.56-0.82-4.3-3.04c-3.09-9.32-6.27-18.62-9.43-27.92
							c-0.88-2.59-1.8-5.17-2.71-7.76c-0.08,0.01-0.15,0.02-0.23,0.03c0,1.58,0,3.16,0,4.74c0,1.64,0,3.29,0,4.93
							c0,1.59,0,3.18,0,4.77s0,3.18,0,4.77c0,1.64,0,3.29,0,4.93c0,1.59,0,3.18,0,4.77c0,1.64,0.02,3.29-0.01,4.93
							c-0.03,1.57,0.14,3.14-0.12,4.7c-4.69,0-9.28,0-13.95,0c-0.03-0.55-0.07-1.02-0.07-1.5c0-16.94,0-33.89-0.01-50.83
							c0-1.16,0.18-2.27,0.59-3.37c1.29-3.48,2.53-6.98,3.81-10.47c3.41-9.33,6.83-18.66,10.25-27.98
							c3.48-9.48,6.92-18.97,10.46-28.43c0.7-1.88,0.77-3.48,0.04-5.44c-3.45-9.25-6.7-18.58-10.04-27.88
							c-0.22-0.62-0.51-1.22-0.76-1.82c-0.08,0.01-0.17,0.03-0.25,0.04c0,0.59,0,1.18,0,1.78c0,10.14,0,20.29,0,30.43
							c0,0.38,0.02,0.77,0,1.15c-0.14,2.12-1.41,3.5-3.53,3.59c-2.41,0.1-4.83,0.09-7.24-0.01c-1.83-0.07-2.92-1.19-3.33-3.05
							c-0.04-0.18-0.19-0.33-0.29-0.5C16.28,120.38,16.28,120.27,16.28,120.16z M50.61,223.1c0.25-0.61,0.41-0.95,0.54-1.31
							c1.23-3.62,2.44-7.24,3.67-10.85c3.23-9.57,6.47-19.13,9.71-28.7c0.27-0.79,0.34-1.53,0.03-2.36
							c-1.51-4.04-2.97-8.1-4.45-12.15c-0.54-1.48-1.09-2.95-1.64-4.43c-5.86,0-11.6,0-17.3,0c-0.1,0.15-0.18,0.23-0.22,0.33
							c-1.76,4.76-3.5,9.53-5.28,14.29c-0.22,0.58-0.09,1.06,0.08,1.56c0.74,2.11,1.51,4.21,2.23,6.33
							c3.7,10.91,7.39,21.82,11.08,32.73C49.54,219.98,50.04,221.42,50.61,223.1z M45.44,151.3c2.99,0,5.8,0,8.73,0
							c-0.49-1.4-0.94-2.68-1.4-3.95c-0.48-1.33-0.97-2.67-1.49-3.99c-0.49-1.24-0.67-2.61-1.58-3.8
							C48.27,143.51,46.88,147.33,45.44,151.3z"/>
					</defs>
					<clipPath id="SVGID_00000057840746756575060140000005010664454598324661_">
						<use xlink:href="#SVGID_1_"  style="overflow:visible;"/>
					</clipPath>
					
						<rect x="45.44" y="139.56" style="clip-path:url(#SVGID_00000057840746756575060140000005010664454598324661_);fill:#1D1D1B;" width="8.73" height="11.74"/>
					
						<rect x="35.45" y="163.3" style="clip-path:url(#SVGID_00000057840746756575060140000005010664454598324661_);fill:#1D1D1B;" width="29.41" height="59.8"/>
					
						<rect x="16.28" y="53.3" style="clip-path:url(#SVGID_00000057840746756575060140000005010664454598324661_);fill:#1D1D1B;" width="121.43" height="191.92"/>
				</g>
			</g>
		</g>
		<g>
			<g>
				<path d="M266.39,53.03c0.01,0.55,0.04,1.1,0.04,1.64c0,22.48,0,44.96,0,67.45c0,0.49,0,0.98,0,1.45
					c-1.19,0.3-10.77,0.37-12.71,0.09c-0.04-0.51-0.08-1.04-0.14-1.77c-0.29,0.16-0.5,0.27-0.69,0.39
					c-3.25,2.13-6.84,3.05-10.7,3.19c-3.99,0.14-7.73-0.7-11.13-2.8c-4.26-2.64-7.39-6.32-9.41-10.9c-1.37-3.12-2.06-6.41-2.4-9.81
					c-0.65-6.52,0.33-12.74,3.03-18.69c1.12-2.46,2.56-4.72,4.36-6.73c3.04-3.37,6.83-5.38,11.32-6.1
					c3.73-0.59,7.42-0.54,11.02,0.67c1.39,0.46,2.71,1.13,4.23,1.78c-0.18,0.04-0.12,0.04-0.1,0.02c0.04-0.04,0.07-0.09,0.07-0.14
					c0.01-0.44,0.03-0.88,0.03-1.31c0-6.14,0-12.28,0-18.42C257.61,53.03,262,53.03,266.39,53.03z M233.11,97.97
					c-0.12,3.01,0.35,6.24,1.72,9.29c0.77,1.71,1.71,3.31,3.38,4.34c1.79,1.11,3.76,1.4,5.82,1.36c2.07-0.04,3.83-0.78,5.31-2.21
					c1.36-1.32,2.3-2.91,2.94-4.69c0.87-2.39,1.2-4.89,1.25-7.4c0.04-2.02-0.12-4.05-0.32-6.06c-0.2-1.91-0.76-3.75-1.77-5.41
					c-1.5-2.46-3.61-4.14-6.51-4.51c-4.52-0.58-8.28,1.67-10.18,5.85C233.43,91.45,233.07,94.52,233.11,97.97z"/>
			</g>
		</g>
		<g>
			<g>
				<path d="M564.54,172.16c-0.1,0.22-0.26,0.44-0.28,0.67c-0.8,6.87-4.56,11.58-10.72,14.4c-3.26,1.5-6.79,2.01-10.38,2.04
					c-2.85,0.02-5.67-0.1-8.49-0.62c-8.22-1.51-12.91-6.76-14.84-14.35c-0.59-2.33-0.76-4.73-0.65-7.13
					c1.56-0.29,11.75-0.25,13,0.05c0.13,0.94,0.29,1.9,0.38,2.87c0.37,3.94,1.88,5.69,5.9,6.57c2.63,0.58,5.32,0.61,7.94-0.21
					c0.83-0.26,1.63-0.63,2.42-0.99c1.19-0.54,1.83-1.45,2.04-2.77c0.23-1.44-0.07-2.41-1.37-2.98c-1.39-0.61-2.86-1.09-4.33-1.49
					c-3.84-1.04-7.72-1.94-11.56-3c-3.13-0.86-6.08-2.13-8.59-4.27c-2.38-2.04-3.85-4.6-4.26-7.71
					c-1.17-8.87,4.07-15.68,11.23-18.29c4.4-1.6,8.92-1.92,13.56-1.35c2.63,0.33,5.17,0.92,7.54,2.08
					c4.92,2.41,8.02,6.32,9.33,11.62c0.5,2.03,0.53,4.11,0.32,6.19c-1.11,0.32-9.6,0.42-12.89,0.15c-0.04-0.61-0.08-1.26-0.12-1.9
					c-0.16-3.01-1.44-4.69-4.32-5.42c-2.63-0.66-5.3-0.79-7.95-0.14c-0.77,0.19-1.57,0.53-2.2,1.01c-1.38,1.03-1.42,2.86-0.08,3.95
					c0.71,0.57,1.55,1.06,2.42,1.33c2.34,0.72,4.72,1.34,7.1,1.92c3.82,0.94,7.64,1.86,11.28,3.36c4.43,1.83,7.11,5.13,8.13,9.79
					c0.12,0.53,0.07,1.09,0.15,1.63c0.03,0.24,0.18,0.46,0.28,0.69C564.54,170.62,564.54,171.39,564.54,172.16z"/>
			</g>
		</g>
		<g>
			<g>
				<path d="M115.01,53.03c0.08,0.37,0.23,0.73,0.23,1.1c0.02,4.48,0.01,8.97,0.01,13.44c-1.15,0.34-10.45,0.45-13.73,0.16
					c0-4.89,0-9.79,0-14.69C106.01,53.03,110.51,53.03,115.01,53.03z"/>
			</g>
		</g>
		<g>
			<g>
				<path d="M142.23,123.79c-1.59,0.01-3.05,0.03-4.51,0.03c-1.43,0.01-2.85,0-4.28,0c-1.47,0-2.95,0-4.4,0
					c-0.31,1.27-0.36,9-0.06,10.76c2.38,0,4.78,0,7.15,0c0.28,1.26,0.35,9.62,0.12,11.96c-1.2,0.38-2.46,0.14-3.7,0.18
					c-1.19,0.04-2.39,0.01-3.67,0.01c0,9.65,0,19.17,0,28.81c2.47,0.68,4.86-0.12,7.27-0.32c0.26,1.17,0.32,9.63,0.07,11.5
					c-1.93,0.87-4.03,1.26-6.14,1.44c-2.67,0.23-5.34,0.17-7.95-0.7c-2.79-0.94-4.65-2.78-5.75-5.45c-1-2.41-1.33-4.94-1.33-7.54
					c0-8.61,0-17.22,0-25.83c0-0.59,0-1.18,0-1.87c-2.12,0-4.07,0-6,0c-0.36-1.19-0.46-9.08-0.17-12.14c1.98,0,3.98,0,5.95,0
					c0.28-1.4,0.32-8.96,0.07-10.88c-4.39,0-8.81,0-13.3,0c0-17.61,0-35.07,0-52.59c4.55,0,9.02,0,13.61,0c0,16.72,0,33.38,0,50
					c1.22,0.35,10.53,0.44,13.33,0.15c0.12-2.37,0.04-4.76,0.06-7.15c0.01-2.36,0-4.72,0-7.07c0-2.41,0-4.83,0-7.24s0-4.83,0-7.24
					s0-4.83,0-7.24c0-2.36,0-4.72,0-7.07c0-2.4-0.01-4.79,0.01-7.14c1.35-0.31,10.79-0.38,13.05-0.11c0,0.83,0,1.69,0,2.78
					c0.66-0.48,1.13-0.83,1.6-1.16c3.23-2.24,6.76-3.24,10.7-2.64c1.02,0.16,2.05,0.18,3.14,0.27c0,4.79,0,9.47,0,14.3
					c-0.93-0.17-1.76-0.33-2.6-0.48c-1.74-0.32-3.5-0.36-5.23-0.02c-3.55,0.7-5.55,3.13-6.58,6.4c-0.35,1.12-0.43,2.37-0.43,3.56
					c-0.03,9.32-0.02,18.65-0.02,27.97C142.23,122.56,142.23,123.1,142.23,123.79z"/>
			</g>
		</g>
		<g>
			<g>
				<path d="M310,154.64c-4.26,0-8.37,0-12.61,0c-0.16-1.59-0.15-3.17,0.02-4.72c0.16-1.46,0.48-2.91,0.86-4.32
					c1.23-4.59,4.2-7.67,8.46-9.65c4.31-2,8.85-2.77,13.55-2.5c4.05,0.23,8.01,0.92,11.7,2.77c4.68,2.35,7.37,6.05,7.82,11.3
					c0.1,1.14,0.19,2.29,0.2,3.43c0.02,7.84,0.01,15.68,0.01,23.52c0,0.6,0,1.2,0,1.85c1.79,0.42,3.37-0.57,5.03-0.5
					c0.3,1.2,0.39,7.61,0.15,11.04c-1.2,0.74-2.62,0.97-3.98,1.26c-2.02,0.44-4.07,0.61-6.18,0.25c-2.7-0.46-4.8-1.74-6.38-3.93
					c-0.13-0.17-0.25-0.35-0.38-0.52c-0.03-0.04-0.09-0.05-0.18-0.09c-2.9,2.17-6.08,3.83-9.66,4.61
					c-4.86,1.05-9.66,1.08-14.24-1.13c-4.95-2.39-8.06-6.34-9.06-11.75c-0.72-3.89-0.29-7.71,1.5-11.32c1.28-2.6,3.28-4.5,5.68-6.01
					c2.72-1.71,5.7-2.75,8.89-3.17c4.39-0.58,8.78-1.11,13.17-1.67c0.43-0.06,0.85-0.18,1.27-0.3c0.53-0.15,0.88-0.56,0.9-1.06
					c0.03-0.98,0.05-1.98-0.14-2.93c-0.34-1.67-1.74-2.34-3.18-2.75c-2.62-0.73-5.29-0.8-7.96-0.28c-3.19,0.62-4.34,2.38-4.78,5.24
					C310.31,152.37,310.17,153.45,310,154.64z M326.35,164.97c-1.81,0.33-3.45,0.67-5.1,0.91c-1.94,0.29-3.91,0.42-5.84,0.75
					c-1.28,0.22-2.57,0.55-3.77,1.04c-1.79,0.75-2.81,2.08-2.87,4.17c-0.06,2.1,0.85,3.48,2.69,4.24c0.94,0.39,1.99,0.64,3,0.65
					c2.96,0.03,5.69-0.83,8.2-2.41c1.64-1.03,2.74-2.47,3.33-4.31C326.51,168.37,326.35,166.7,326.35,164.97z"/>
			</g>
		</g>
		<g>
			<g>
				<path d="M477.93,154.64c-4.31,0-8.41,0-12.69,0c0-0.72-0.03-1.42,0.01-2.1c0.13-2.18,0.29-4.35,0.85-6.48
					c1.12-4.26,3.56-7.45,7.46-9.51c3.13-1.65,6.45-2.59,9.99-2.95c4.93-0.49,9.71,0.04,14.35,1.72c3.04,1.1,5.7,2.77,7.58,5.51
					c1.5,2.18,2.24,4.61,2.41,7.22c0.08,1.31,0.05,2.63,0.05,3.95c0,7.57,0,15.14,0,22.71c0,0.54,0,1.08,0,1.72
					c1.81,0.16,3.41-0.55,5.06-0.63c0.25,1.27,0.29,9.42,0.07,11.23c-2.63,0.87-5.3,1.62-8.13,1.55c-2.22-0.06-4.38-0.47-6.15-1.92
					c-0.96-0.79-1.75-1.77-2.7-2.75c-0.24,0.15-0.65,0.39-1.04,0.67c-3.18,2.24-6.71,3.73-10.54,4.25
					c-3.86,0.53-7.73,0.48-11.42-1.13c-5.39-2.36-8.82-6.3-9.94-12.15c-0.7-3.65-0.32-7.2,1.11-10.61c1.01-2.43,2.74-4.34,4.85-5.9
					c3.01-2.23,6.42-3.48,10.11-3.98c4.38-0.59,8.78-1.11,13.17-1.67c0.32-0.04,0.64-0.15,0.96-0.21c0.77-0.12,1.08-0.57,1.17-1.34
					c0.4-3.38-0.79-5.03-4.14-5.69c-2.5-0.49-4.99-0.56-7.49-0.01c-2.31,0.51-3.78,1.88-4.24,4.23c-0.15,0.75-0.24,1.51-0.36,2.26
					C478.17,153.28,478.06,153.91,477.93,154.64z M494.33,165.07c-0.16-0.05-0.28-0.13-0.36-0.11c-3.34,0.9-6.78,1.11-10.18,1.62
					c-1.78,0.26-3.53,0.66-5.13,1.59c-2.48,1.43-2.66,6-0.16,7.42c1.17,0.67,2.35,1.17,3.7,1.18c3.03,0.03,5.85-0.79,8.4-2.39
					c1.67-1.05,2.91-2.54,3.43-4.47C494.46,168.32,494.55,166.68,494.33,165.07z"/>
			</g>
		</g>
		<g>
			<g>
				<path d="M178.26,90.82c-4.29,0-8.49,0-12.73,0c0.09-3.69,0.13-7.28,1.57-10.68c1.76-4.14,4.95-6.71,9.02-8.36
					c4.95-2.01,10.06-2.33,15.31-1.71c3.18,0.38,6.2,1.17,9.06,2.64c4.96,2.53,7.52,6.61,7.62,12.1c0.13,7.02,0.05,14.04,0.06,21.06
					c0,1.86,0,3.73,0,5.59c0,0.43,0,0.86,0,1.44c1.8-0.28,3.45-0.53,5.18-0.8c0,3.74,0,7.45,0,11.2c-3.31,1.33-6.76,1.84-10.28,1.38
					c-2.47-0.33-4.5-1.63-5.99-3.68c-0.19-0.26-0.36-0.54-0.54-0.8c-1.65,0.95-3.21,1.94-4.86,2.77c-4.11,2.06-8.52,2.79-13.07,2.37
					c-4.09-0.37-7.75-1.93-10.69-4.86c-2.16-2.16-3.66-4.73-4.36-7.76c-0.84-3.63-0.57-7.17,0.65-10.65c1.14-3.24,3.38-5.6,6.2-7.43
					c3.13-2.03,6.61-3.05,10.31-3.46c3.09-0.35,6.17-0.8,9.26-1.2c1.08-0.14,2.17-0.28,3.26-0.39c0.86-0.09,1.35-0.45,1.52-1.39
					c0.51-2.66-0.53-4.7-2.8-5.36c-3.09-0.9-6.21-1.17-9.36-0.23c-2.09,0.63-3.31,2.05-3.74,4.15c-0.18,0.91-0.26,1.84-0.4,2.76
					C178.42,89.95,178.34,90.37,178.26,90.82z M194.6,101.41c-3.24,0.45-6.41,0.85-9.57,1.36c-1.61,0.26-3.22,0.6-4.76,1.09
					c-1.93,0.62-3.11,1.96-3.22,4.08c-0.07,1.41,0.13,2.74,1.33,3.66c1,0.78,2.12,1.3,3.43,1.39c3.16,0.23,6.07-0.52,8.76-2.11
					c2.02-1.19,3.35-2.88,3.87-5.23C194.75,104.17,194.6,102.73,194.6,101.41z"/>
			</g>
		</g>
		<g>
			<g>
				<path d="M322.37,112.93c1.87-0.29,3.48-0.55,5.17-0.82c0,3.72,0,7.43,0,11.33c-1.63,0.41-3.29,1.01-5,1.23
					c-2.11,0.26-4.26,0.36-6.36-0.25c-2.01-0.58-3.66-1.69-4.84-3.45c-0.15-0.23-0.33-0.44-0.5-0.65c-0.03-0.04-0.09-0.06-0.18-0.11
					c-1.09,0.67-2.18,1.38-3.31,2.02c-4.5,2.59-9.39,3.59-14.52,3.11c-5.41-0.51-9.82-2.99-12.84-7.56
					c-2.28-3.45-3.01-7.28-2.52-11.42c0.4-3.37,1.5-6.36,3.8-8.88c2.39-2.62,5.4-4.23,8.75-5.28c2.46-0.78,5.02-1.03,7.57-1.33
					c2.17-0.26,4.33-0.57,6.5-0.85c1.14-0.15,2.28-0.26,3.41-0.43c1.09-0.17,1.47-0.48,1.59-1.54c0.26-2.3-0.23-4.35-2.91-5.18
					c-2.25-0.7-4.57-1.05-6.94-0.69c-0.32,0.05-0.65,0.09-0.98,0.13c-3.06,0.4-4.7,1.95-5.22,5.01c-0.19,1.13-0.33,2.26-0.49,3.39
					c-1.19,0.29-10.71,0.34-12.63,0.06c-0.24-3.68,0.06-7.28,1.51-10.73c1.4-3.33,3.82-5.7,7-7.32c3.66-1.87,7.55-2.81,11.67-2.89
					c3.74-0.07,7.44,0.24,11.02,1.38c2.89,0.92,5.59,2.22,7.7,4.51c2.11,2.29,3.27,5.01,3.53,8.11c0.05,0.65,0.04,1.32,0.04,1.97
					c0,8.45,0,16.89,0,25.34C322.37,111.65,322.37,112.19,322.37,112.93z M308.94,101.43c-0.38-0.04-0.5-0.07-0.6-0.05
					c-3.04,0.67-6.13,1.03-9.21,1.41c-1.45,0.18-2.92,0.48-4.3,0.95c-3.25,1.12-3.65,2.81-3.51,5.34c0.06,1.13,0.54,2.01,1.42,2.65
					c0.98,0.71,2.06,1.19,3.32,1.27c2.74,0.18,5.33-0.36,7.78-1.57c2.46-1.22,4.33-3.02,4.83-5.83
					C308.9,104.27,308.85,102.89,308.94,101.43z"/>
			</g>
		</g>
		<g>
			<g>
				<path d="M157.67,166.55c0.32,3.07,1.31,5.63,3.18,7.81c0.88,1.02,2.11,1.59,3.37,1.95c2.3,0.66,4.65,0.67,6.96-0.04
					c2.85-0.87,4.77-2.8,5.99-5.46c0.29-0.64,0.51-1.33,0.76-1.99c1.57-0.31,12.08-0.26,13.23,0.07c-0.21,4.43-2.14,8.18-4.74,11.62
					c-3.39,4.48-7.94,7.11-13.44,8.09c-1.72,0.3-3.46,0.57-5.2,0.6c-6.2,0.09-11.69-1.74-16.34-6c-4.03-3.69-6.36-8.25-7.49-13.53
					c-0.82-3.85-0.89-7.74-0.56-11.61c0.49-5.83,2.34-11.23,6.1-15.82c3.66-4.48,8.29-7.38,14.09-8.31
					c6.47-1.04,12.48,0.06,18.02,3.62c4.98,3.2,7.77,7.86,9.1,13.52c0.89,3.81,1.04,7.68,1.03,11.57c0,1.14,0,2.29,0,3.53
					c-0.51,0.04-0.93,0.09-1.35,0.09c-2.85,0.01-5.7-0.01-8.55,0.01c-7.67,0.06-15.33,0.13-23,0.2
					C158.49,166.48,158.18,166.51,157.67,166.55z M157.9,154.29c2.12,0.25,18.38,0.19,19.58-0.07c-0.11-0.47-0.17-0.96-0.33-1.42
					c-0.7-1.97-1.58-3.83-3.38-5.09c-2.61-1.83-5.56-2.02-8.48-1.33C161.19,147.36,159.01,150.35,157.9,154.29z"/>
			</g>
		</g>
		<g>
			<g>
				<path d="M377.2,90.15c-4.3,0-8.41,0-12.64,0c-0.13-0.85-0.3-1.7-0.39-2.55c-0.26-2.58-1.48-4.22-3.91-4.88
					c-2.66-0.72-5.4-0.74-8.11-0.3c-0.78,0.13-1.58,0.5-2.24,0.95c-1.52,1.02-1.6,2.84-0.25,4.07c1.03,0.95,2.31,1.45,3.64,1.79
					c2.64,0.68,5.31,1.26,7.93,1.99c2.89,0.8,5.78,1.63,8.6,2.63c4.16,1.47,7.12,4.24,8.4,8.56c0.87,2.94,0.99,5.93,0.2,8.91
					c-1.9,7.26-6.7,11.61-13.85,13.4c-3.67,0.92-7.42,1.15-11.22,0.78c-2.46-0.24-4.86-0.6-7.23-1.33c-4.5-1.39-7.65-4.36-9.86-8.4
					c-1.57-2.87-2.36-5.98-2.47-9.26c-0.03-0.97-0.14-1.94-0.22-2.89c1.26-0.31,10.65-0.39,13.1-0.12c0.1,0.72,0.2,1.47,0.3,2.21
					c0.09,0.65,0.19,1.29,0.28,1.94c0.43,3.02,2.41,4.57,5.18,5.21c2.69,0.62,5.44,0.69,8.13,0.01c1.14-0.29,2.24-0.85,3.28-1.42
					c1.08-0.6,1.52-1.66,1.59-2.89c0.07-1.17-0.34-2.08-1.43-2.53c-1.26-0.52-2.54-0.99-3.86-1.34c-3.85-1.03-7.72-1.94-11.56-2.99
					c-2.91-0.8-5.71-1.88-8.17-3.71c-3.42-2.55-5.23-5.91-5.32-10.22c-0.1-5.11,1.6-9.45,5.39-12.89c2.82-2.56,6.21-4.03,9.94-4.73
					c3.1-0.58,6.23-0.55,9.34-0.27c4.56,0.41,8.77,1.89,12.18,5.08c2.49,2.33,4.15,5.21,4.95,8.54
					C377.43,85.65,377.35,87.83,377.2,90.15z"/>
			</g>
		</g>
		<g>
			<g>
				<path d="M284.12,187.32c-1.89,0.34-12.49,0.28-13.74-0.07c0-0.56,0-1.15,0-1.74c0-10.41,0-20.83,0-31.24
					c0-1.82-0.22-3.59-1.02-5.26c-0.7-1.44-1.86-2.18-3.39-2.57c-1.72-0.44-3.4-0.19-5.03,0.18c-3.92,0.88-6.92,4.84-7.1,7.95
					c-0.09,1.63-0.3,3.27-0.31,4.9c-0.03,8.66-0.01,17.32-0.01,25.98c0,0.6,0,1.2,0,1.76c-1.17,0.4-10.4,0.53-13.29,0.21
					c-0.29-1.41-0.41-46.78-0.15-52.56c1.08-0.31,10.51-0.41,13-0.12c0.04,0.78,0.07,1.58,0.12,2.55c0.38-0.2,0.66-0.31,0.91-0.47
					c3.16-2.02,6.59-3.1,10.35-3.21c2.9-0.08,5.74,0.07,8.54,0.96c5.44,1.74,8.67,5.51,10.15,10.88c0.7,2.53,0.99,5.14,0.99,7.78
					c-0.01,10.8,0,21.6,0,32.4C284.12,186.17,284.12,186.71,284.12,187.32z"/>
			</g>
		</g>
		<g>
			<g>
				<path d="M443.5,134.67c4.95,0,9.76,0,14.74,0c-6.65,17.65-13.25,35.19-19.88,52.78c-4.08,0-8.07,0-12.28,0
					c-0.18-0.39-0.48-0.9-0.68-1.45c-2.83-7.68-5.64-15.37-8.47-23.05c-3.28-8.91-6.58-17.81-9.86-26.72
					c-0.17-0.46-0.32-0.92-0.48-1.39c1.17-0.29,12.8-0.37,15.2-0.1c3.49,10.65,7.01,21.37,10.61,32.36
					C436.17,156.09,439.83,145.37,443.5,134.67z"/>
			</g>
		</g>
		<g>
			<g>
				<path d="M369.46,175.56c2.59,0.57,4.93-0.13,7.29-0.35c0.26,1.26,0.34,8.31,0.13,11.55c-1.85,0.74-3.82,1.19-5.82,1.37
					c-2.56,0.24-5.12,0.24-7.65-0.47c-3.27-0.92-5.37-3.02-6.55-6.14c-0.71-1.86-1.02-3.78-1.01-5.78
					c0.02-8.99,0.01-17.98,0.01-26.98c0-0.6,0-1.2,0-1.9c-2.15-0.38-4.28,0.05-6.42-0.26c0-4,0-7.87,0-11.93
					c2.05-0.23,4.17,0.03,6.37-0.15c0-2.13,0-4.2,0-6.37c0.53-0.13,0.99-0.31,1.45-0.35c3.16-0.27,6.32-0.5,9.48-0.77
					c0.81-0.07,1.61-0.19,2.6-0.31c0.14,2.63-0.01,5.18,0.09,7.81c2.5,0,4.9,0,7.27,0c0.32,1.19,0.41,9.61,0.13,12.17
					c-1.22,0-2.47,0-3.71,0c-1.19,0-2.39,0-3.65,0C369.46,156.38,369.46,165.9,369.46,175.56z"/>
			</g>
		</g>
		<g>
			<g>
				<path d="M86.42,118.26c4.51,0,8.83,0,13.13,0c0.07,0.06,0.11,0.1,0.15,0.14c0.03,0.04,0.08,0.09,0.08,0.13
					c0.02,22.59,0.03,45.18,0.05,67.77c0,0.32-0.04,0.65-0.06,0.95c-1.14,0.35-11.02,0.44-13.35,0.13
					C86.42,164.39,86.42,141.39,86.42,118.26z"/>
			</g>
		</g>
		<g>
			<g>
				<path d="M203.24,134.66c4.44,0,8.69,0,13.05,0c0.05,0.89,0.1,1.74,0.15,2.68c1-0.67,1.87-1.32,2.8-1.88
					c2.4-1.45,5.01-2.07,7.82-1.86c1.52,0.12,3.05,0.23,4.54,0.35c0.29,1.27,0.33,12.42,0.05,14.25c-1.11-0.19-2.23-0.35-3.34-0.56
					c-1.93-0.36-3.83-0.21-5.65,0.47c-3.23,1.2-4.87,3.77-5.61,6.97c-0.28,1.21-0.31,2.49-0.31,3.75
					c-0.02,8.93-0.01,17.87-0.01,26.8c0,0.59,0,1.18,0,1.82c-4.53,0-8.89,0-13.14,0c-0.15-0.12-0.2-0.14-0.23-0.19
					c-0.03-0.04-0.06-0.1-0.06-0.15c-0.02-0.27-0.05-0.54-0.05-0.82C203.24,169.15,203.24,152,203.24,134.66z"/>
			</g>
		</g>
		<g>
			<g>
				<path d="M386.22,134.81c4.48,0,8.9,0,13.4,0c0,17.57,0,35.07,0,52.65c-4.48,0-8.9,0-13.4,0
					C386.22,169.89,386.22,152.39,386.22,134.81z"/>
			</g>
		</g>
		<g>
			<g>
				<path d="M386.15,117.03c4.54,0,8.91,0,13.28,0c0.35,1.12,0.48,10.29,0.2,14.38c-1.19,0.32-8.63,0.42-13.34,0.17
					c-0.34-1.14-0.11-2.34-0.15-3.52c-0.04-1.26-0.01-2.52-0.01-3.78c0-1.21,0-2.41,0-3.62
					C386.14,119.47,386.14,118.28,386.15,117.03z"/>
			</g>
		</g>
	</g>
</g>
</svg>
